# xmcd CD database file
#
# Track frame offsets:
#	150
#	7367
#	22264
#	33093
#	46635
#	56909
#	69943
#	90683
#	111423
#	129794
#	143512
#	152121
#	162377
#	173384
#	189243
#	207275
#
# Disc length: 3010 seconds
#
# Revision: 0
# Processed by: cddbd v1.5.2PL0 Copyright (c) Steve Scherf et al.
# Submitted via: jetAudio 7
#
DISCID=ce0bc010
DTITLE=札登巴巴圖  - 馬頭琴
DYEAR=1900
DGENRE=장르 없음
TTITLE0=天上的神雲
TTITLE1=德米奥奥優林優裏林
TTITLE2=祈禱
TTITLE3=棕色的袍裙
TTITLE4=西蒙的流行舞
TTITLE5=薩班拉克
TTITLE6=大青馬
TTITLE7=夏那波
TTITLE8=呼和包日
TTITLE9=黑駿馬
TTITLE10=柯勒倫河之景
TTITLE11=西蒙的舞曲
TTITLE12=四季
TTITLE13=烏裏雅狠抗格爾
TTITLE14=阿斯爾
TTITLE15=查幹陶海故鄕
EXTD=
EXTT0=
EXTT1=
EXTT2=
EXTT3=
EXTT4=
EXTT5=
EXTT6=
EXTT7=
EXTT8=
EXTT9=
EXTT10=
EXTT11=
EXTT12=
EXTT13=
EXTT14=
EXTT15=
PLAYORDER=
